<svg xmlns="http://www.w3.org/2000/svg" width="520" height="520" viewBox="0 0 520 520"><path fill="#2d2c2e" d="M194.875,445h-25c-14.691,0-28.503-5.721-38.891-16.108 c-10.388-10.389-16.109-24.201-16.109-38.892c0-30.327,24.673-55,55-55h5c5.523,0,10,4.478,10,10s-4.477,10-10,10h-5 c-19.299,0-35,15.701-35,35c0,9.349,3.641,18.139,10.251,24.749c6.61,6.61,15.399,10.251,24.749,10.251h25 c5.523,0,10,4.478,10,10S200.398,445,194.875,445z"></path><path fill="#2d2c2e" d="M464.875,445h-40c-5.522,0-10-4.478-10-10s4.478-10,10-10h40c5.522,0,10,4.478,10,10 S470.397,445,464.875,445z"></path><path fill="#2d2c2e" d="M344.875,445h-70c-5.522,0-10-4.478-10-10s4.478-10,10-10h70c5.522,0,10,4.478,10,10 S350.397,445,344.875,445z"></path><path fill="#3c3b3d" d="M234.875,395c22.09,0,40,17.91,40,40s-17.91,40-40,40s-40-17.91-40-40S212.785,395,234.875,395z M244.875,435c0-5.52-4.48-10-10-10s-10,4.48-10,10s4.48,10,10,10S244.875,440.52,244.875,435z"></path><path fill="#3c3b3d" d="M384.875,395c22.09,0,40,17.91,40,40s-17.91,40-40,40s-40-17.91-40-40S362.785,395,384.875,395z M394.875,435c0-5.52-4.48-10-10-10s-10,4.48-10,10s4.48,10,10,10S394.875,440.52,394.875,435z"></path><path fill="#2d2c2e" d="M135.125,134c-5.523,0-10-4.477-10-10v-20h-30c-5.523,0-10-4.477-10-10s4.477-10,10-10h40 c5.523,0,10,4.477,10,10v30C145.125,129.523,140.648,134,135.125,134z"></path><path fill="#3c3b3d" d="M75.125,74c11.05,0,20,8.95,20,20c0,5.52-2.24,10.52-5.86,14.14c-3.62,3.62-8.62,5.86-14.14,5.86 h-20c-11.05,0-20-8.95-20-20c0-5.52,2.24-10.52,5.86-14.14c3.62-3.62,8.62-5.86,14.14-5.86H75.125z"></path><path fill="#73665c" d="M124.875,125c13.611,62.614,31.435,144.601,50,230c16.194,0,273.936,0,290,0l20-180L124.875,125z"></path><path fill="#3c3b3d" d="M439.875,45c13.81,0,25,11.19,25,25s-11.19,25-25,25s-25-11.19-25-25S426.065,45,439.875,45z"></path><path fill="#3c3b3d" d="M64.875,295c11.05,0,20,8.95,20,20s-8.95,20-20,20s-20-8.95-20-20S53.825,295,64.875,295z"></path><path fill="#d7deed" d="M361.945,97.93c1.81,1.81,2.93,4.31,2.93,7.07s-1.12,5.26-2.93,7.07 c-1.811,1.81-4.311,2.93-7.07,2.93s-5.26-1.12-7.07-2.93c-1.81-1.81-2.93-4.31-2.93-7.07c0-5.52,4.48-10,10-10 C357.635,95,360.135,96.12,361.945,97.93z"></path><path fill="#d7deed" d="M341.945,377.93c1.81,1.811,2.93,4.311,2.93,7.07s-1.12,5.26-2.93,7.07 c-1.811,1.81-4.311,2.93-7.07,2.93s-5.26-1.12-7.07-2.93c-1.81-1.811-2.93-4.311-2.93-7.07c0-5.52,4.48-10,10-10 C337.635,375,340.135,376.12,341.945,377.93z"></path><path fill="#d7deed" d="M91.945,207.93c1.81,1.81,2.93,4.31,2.93,7.07s-1.12,5.26-2.93,7.07s-4.31,2.93-7.07,2.93 s-5.26-1.12-7.07-2.93s-2.93-4.31-2.93-7.07c0-5.52,4.48-10,10-10C87.635,205,90.135,206.12,91.945,207.93z"></path><path fill="#d7deed" d="M81.945,417.93c1.81,1.811,2.93,4.311,2.93,7.07s-1.12,5.26-2.93,7.07 c-1.81,1.81-4.31,2.93-7.07,2.93s-5.26-1.12-7.07-2.93c-1.81-1.811-2.93-4.311-2.93-7.07c0-5.52,4.48-10,10-10 C77.635,415,80.135,416.12,81.945,417.93z"></path></svg>