<svg xmlns="http://www.w3.org/2000/svg" viewBox="0 0 100 100"><path fill="#c7ede6" d="M87.215,56.71C88.35,54.555,89,52.105,89,49.5c0-6.621-4.159-12.257-10.001-14.478 C78.999,35.015,79,35.008,79,35c0-11.598-9.402-21-21-21c-9.784,0-17.981,6.701-20.313,15.757C36.211,29.272,34.638,29,33,29 c-7.692,0-14.023,5.793-14.89,13.252C12.906,43.353,9,47.969,9,53.5C9,59.851,14.149,65,20.5,65c0.177,0,0.352-0.012,0.526-0.022 C21.022,65.153,21,65.324,21,65.5C21,76.822,30.178,86,41.5,86c6.437,0,12.175-2.972,15.934-7.614C59.612,80.611,62.64,82,66,82 c4.65,0,8.674-2.65,10.666-6.518C77.718,75.817,78.837,76,80,76c6.075,0,11-4.925,11-11C91,61.689,89.53,58.727,87.215,56.71z"></path><path fill="#fdfcef" d="M43.875,35.5c0,0,3.64,0,6.125,0s4.5-2.015,4.5-4.5c0-2.333-1.782-4.229-4.055-4.455 C50.467,26.364,50.5,26.187,50.5,26c0-2.485-2.015-4.5-4.5-4.5c-1.438,0-2.703,0.686-3.527,1.736 C42.333,20.6,40.171,18.5,37.5,18.5c-2.761,0-5,2.239-5,5c0,0.446,0.077,0.87,0.187,1.282C32.045,24.005,31.086,23.5,30,23.5 c-1.781,0-3.234,1.335-3.455,3.055C26.364,26.533,26.187,26.5,26,26.5c-2.485,0-4.5,2.015-4.5,4.5s2.015,4.5,4.5,4.5s9.5,0,9.5,0 h5.375V36h3V35.5z"></path><path fill="#472b29" d="M37.5,18c-3.033,0-5.5,2.467-5.5,5.5c0,0.016,0,0.031,0,0.047C31.398,23.192,30.71,23,30,23 c-1.831,0-3.411,1.261-3.858,3.005C26.095,26.002,26.048,26,26,26c-2.757,0-5,2.243-5,5s2.243,5,5,5h14.875 c0.276,0,0.5-0.224,0.5-0.5s-0.224-0.5-0.5-0.5H26c-2.206,0-4-1.794-4-4s1.794-4,4-4c0.117,0,0.23,0.017,0.343,0.032l0.141,0.019 c0.021,0.003,0.041,0.004,0.062,0.004c0.246,0,0.462-0.185,0.495-0.437C27.232,25.125,28.504,24,30,24 c0.885,0,1.723,0.401,2.301,1.1c0.098,0.118,0.241,0.182,0.386,0.182c0.078,0,0.156-0.018,0.228-0.056 c0.209-0.107,0.314-0.346,0.254-0.573C33.054,24.218,33,23.852,33,23.5c0-2.481,2.019-4.5,4.5-4.5 c2.381,0,4.347,1.872,4.474,4.263c0.011,0.208,0.15,0.387,0.349,0.45c0.05,0.016,0.101,0.024,0.152,0.024 c0.15,0,0.296-0.069,0.392-0.192C43.638,22.563,44.779,22,46,22c2.206,0,4,1.794,4,4c0,0.117-0.017,0.23-0.032,0.343l-0.019,0.141 c-0.016,0.134,0.022,0.268,0.106,0.373c0.084,0.105,0.207,0.172,0.34,0.185C52.451,27.247,54,28.949,54,31c0,2.206-1.794,4-4,4 h-6.125c-0.276,0-0.5,0.224-0.5,0.5s0.224,0.5,0.5,0.5H50c2.757,0,5-2.243,5-5c0-2.397-1.689-4.413-4.003-4.877 C50.999,26.082,51,26.041,51,26c0-2.757-2.243-5-5-5c-1.176,0-2.293,0.416-3.183,1.164C42.219,19.76,40.055,18,37.5,18L37.5,18z"></path><path fill="#472b29" d="M36,25c-1.403,0-2.609,0.999-2.913,2.341C32.72,27.119,32.301,27,31.875,27 c-1.202,0-2.198,0.897-2.353,2.068C29.319,29.022,29.126,29,28.937,29c-1.529,0-2.811,1.2-2.918,2.732 C26.01,31.87,26.114,31.99,26.251,32c0.006,0,0.012,0,0.018,0c0.13,0,0.24-0.101,0.249-0.232c0.089-1.271,1.151-2.268,2.419-2.268 c0.229,0,0.47,0.042,0.738,0.127c0.022,0.007,0.045,0.01,0.067,0.01c0.055,0,0.11-0.02,0.156-0.054 C29.962,29.537,30,29.455,30,29.375c0-1.034,0.841-1.875,1.875-1.875c0.447,0,0.885,0.168,1.231,0.473 c0.047,0.041,0.106,0.063,0.165,0.063c0.032,0,0.063-0.006,0.093-0.019c0.088-0.035,0.148-0.117,0.155-0.212 C33.623,26.512,34.712,25.5,36,25.5c0.208,0,0.425,0.034,0.682,0.107c0.023,0.007,0.047,0.01,0.07,0.01 c0.109,0,0.207-0.073,0.239-0.182c0.038-0.133-0.039-0.271-0.172-0.309C36.517,25.04,36.256,25,36,25L36,25z"></path><path fill="#472b29" d="M49.883,26.5c-1.326,0-2.508,0.897-2.874,2.182c-0.038,0.133,0.039,0.271,0.172,0.309 C47.205,28.997,47.228,29,47.25,29c0.109,0,0.209-0.072,0.24-0.182C47.795,27.748,48.779,27,49.883,27 c0.117,0,0.23,0.014,0.342,0.029c0.012,0.002,0.023,0.003,0.035,0.003c0.121,0,0.229-0.092,0.246-0.217 c0.019-0.137-0.077-0.263-0.214-0.281C50.158,26.516,50.022,26.5,49.883,26.5L49.883,26.5z"></path><path fill="#fff" d="M83.405,46H73.5c-0.276,0-0.5-0.224-0.5-0.5s0.224-0.5,0.5-0.5h9.905c0.276,0,0.5,0.224,0.5,0.5 S83.682,46,83.405,46z"></path><path fill="#fff" d="M86.5,46h-1c-0.276,0-0.5-0.224-0.5-0.5s0.224-0.5,0.5-0.5h1c0.276,0,0.5,0.224,0.5,0.5 S86.777,46,86.5,46z"></path><path fill="#fff" d="M91.491,48H82.5c-0.276,0-0.5-0.224-0.5-0.5s0.224-0.5,0.5-0.5h8.991c0.276,0,0.5,0.224,0.5,0.5 S91.767,48,91.491,48z"></path><path fill="#fff" d="M80.5,48h-1c-0.276,0-0.5-0.224-0.5-0.5s0.224-0.5,0.5-0.5h1c0.276,0,0.5,0.224,0.5,0.5 S80.777,48,80.5,48z"></path><path fill="#fff" d="M77.5,48h-2c-0.276,0-0.5-0.224-0.5-0.5s0.224-0.5,0.5-0.5h2c0.276,0,0.5,0.224,0.5,0.5 S77.777,48,77.5,48z"></path><path fill="#fff" d="M83.5,50h-2c-0.276,0-0.5-0.224-0.5-0.5s0.224-0.5,0.5-0.5h2c0.276,0,0.5,0.224,0.5,0.5 S83.776,50,83.5,50z"></path><path fill="#fff" d="M86.5,41c-0.177,0-0.823,0-1,0c-0.276,0-0.5,0.224-0.5,0.5c0,0.276,0.224,0.5,0.5,0.5 c0.177,0,0.823,0,1,0c0.276,0,0.5-0.224,0.5-0.5C87,41.224,86.776,41,86.5,41z"></path><path fill="#fff" d="M86.5,43c-0.177,0-4.823,0-5,0c-0.276,0-0.5,0.224-0.5,0.5c0,0.276,0.224,0.5,0.5,0.5 c0.177,0,4.823,0,5,0c0.276,0,0.5-0.224,0.5-0.5C87,43.224,86.776,43,86.5,43z"></path><path fill="#fff" d="M91.5,45c-0.177,0-2.823,0-3,0c-0.276,0-0.5,0.224-0.5,0.5c0,0.276,0.224,0.5,0.5,0.5 c0.177,0,2.823,0,3,0c0.276,0,0.5-0.224,0.5-0.5C92,45.224,91.776,45,91.5,45z"></path><g><path fill="#fff" d="M17.5,57h-10C7.224,57,7,56.776,7,56.5S7.224,56,7.5,56h10c0.276,0,0.5,0.224,0.5,0.5 S17.776,57,17.5,57z"></path><path fill="#fff" d="M21.5,57h-2c-0.276,0-0.5-0.224-0.5-0.5s0.224-0.5,0.5-0.5h2c0.276,0,0.5,0.224,0.5,0.5 S21.776,57,21.5,57z"></path><path fill="#fff" d="M26.5,59h-10c-0.276,0-0.5-0.224-0.5-0.5s0.224-0.5,0.5-0.5h10c0.276,0,0.5,0.224,0.5,0.5 S26.777,59,26.5,59z"></path><path fill="#fff" d="M14.5,59h-1c-0.276,0-0.5-0.224-0.5-0.5s0.224-0.5,0.5-0.5h1c0.276,0,0.5,0.224,0.5,0.5 S14.776,59,14.5,59z"></path><path fill="#fff" d="M11.47,59H9.5C9.224,59,9,58.776,9,58.5S9.224,58,9.5,58h1.97c0.276,0,0.5,0.224,0.5,0.5 S11.746,59,11.47,59z"></path><path fill="#fff" d="M20.5,55h-5c-0.276,0-0.5-0.224-0.5-0.5s0.224-0.5,0.5-0.5h5c0.276,0,0.5,0.224,0.5,0.5 S20.777,55,20.5,55z"></path><path fill="#fff" d="M17.5,61h-2c-0.276,0-0.5-0.224-0.5-0.5s0.224-0.5,0.5-0.5h2c0.276,0,0.5,0.224,0.5,0.5 S17.776,61,17.5,61z"></path></g><g><path fill="#fdfcef" d="M81.5,68.5c0,0,1.567,0,3.5,0s3.5-1.567,3.5-3.5c0-1.781-1.335-3.234-3.055-3.455 C85.473,61.366,85.5,61.187,85.5,61c0-1.933-1.567-3.5-3.5-3.5c-1.032,0-1.95,0.455-2.59,1.165 c-0.384-1.808-1.987-3.165-3.91-3.165c-2.209,0-4,1.791-4,4c0,0.191,0.03,0.374,0.056,0.558C71.128,59.714,70.592,59.5,70,59.5 c-1.228,0-2.245,0.887-2.455,2.055C67.366,61.527,67.187,61.5,67,61.5c-1.933,0-3.5,1.567-3.5,3.5s1.567,3.5,3.5,3.5s7.5,0,7.5,0 V69h7V68.5z"></path><path fill="#472b29" d="M83.25,64C83.112,64,83,63.888,83,63.75c0-1.223,0.995-2.218,2.218-2.218 c0.034,0.009,0.737-0.001,1.244,0.136c0.133,0.036,0.212,0.173,0.176,0.306c-0.036,0.134-0.173,0.213-0.306,0.176 c-0.444-0.12-1.1-0.12-1.113-0.118c-0.948,0-1.719,0.771-1.719,1.718C83.5,63.888,83.388,64,83.25,64z"></path><circle cx="76.5" cy="68.5" r=".5" fill="#472b29"></circle><path fill="#472b29" d="M85,69h-3.5c-0.276,0-0.5-0.224-0.5-0.5s0.224-0.5,0.5-0.5H85c1.654,0,3-1.346,3-3 c0-1.496-1.125-2.768-2.618-2.959c-0.134-0.018-0.255-0.088-0.336-0.196s-0.115-0.244-0.094-0.377C84.975,61.314,85,61.16,85,61 c0-1.654-1.346-3-3-3c-0.85,0-1.638,0.355-2.219,1c-0.125,0.139-0.321,0.198-0.5,0.148c-0.182-0.049-0.321-0.195-0.36-0.379 C78.58,57.165,77.141,56,75.5,56c-1.93,0-3.5,1.57-3.5,3.5c0,0.143,0.021,0.28,0.041,0.418c0.029,0.203-0.063,0.438-0.242,0.54 c-0.179,0.102-0.396,0.118-0.556-0.01C70.878,60.155,70.449,60,70,60c-0.966,0-1.792,0.691-1.963,1.644 c-0.048,0.267-0.296,0.446-0.569,0.405C67.314,62.025,67.16,62,67,62c-1.654,0-3,1.346-3,3s1.346,3,3,3h7.5 c0.276,0,0.5,0.224,0.5,0.5S74.776,69,74.5,69H67c-2.206,0-4-1.794-4-4s1.794-4,4-4c0.059,0,0.116,0.002,0.174,0.006 C67.588,59.82,68.711,59,70,59c0.349,0,0.689,0.061,1.011,0.18C71.176,56.847,73.126,55,75.5,55c1.831,0,3.466,1.127,4.153,2.774 C80.333,57.276,81.155,57,82,57c2.206,0,4,1.794,4,4c0,0.048-0.001,0.095-0.004,0.142C87.739,61.59,89,63.169,89,65 C89,67.206,87.206,69,85,69z"></path><path fill="#472b29" d="M79.5,68c-0.159,0-0.841,0-1,0c-0.276,0-0.5,0.224-0.5,0.5c0,0.276,0.224,0.5,0.5,0.5 c0.159,0,0.841,0,1,0c0.276,0,0.5-0.224,0.5-0.5C80,68.224,79.776,68,79.5,68z"></path></g><g><path fill="#f1bc19" d="M39.802,76.248c-0.362,0-0.718-0.071-1.057-0.211c-1.415-0.583-2.091-2.209-1.508-3.625 l4.152-10.063l5.132,2.117L42.369,74.53C41.938,75.573,40.931,76.248,39.802,76.248z"></path><path fill="#472b29" d="M41.769,63.263l3.838,1.583l-3.884,9.417c-0.322,0.781-1.076,1.285-1.92,1.285 c-0.271,0-0.537-0.053-0.79-0.158c-0.513-0.211-0.912-0.609-1.125-1.122c-0.213-0.512-0.214-1.076-0.002-1.589L41.769,63.263 M41.008,61.435l-4.418,10.71c-0.732,1.774,0.113,3.807,1.888,4.539c0.434,0.179,0.883,0.264,1.324,0.264 c1.366,0,2.661-0.81,3.214-2.151l4.418-10.71L41.008,61.435L41.008,61.435z"></path><path fill="#836f61" d="M54.558,68.284c-0.235,0-0.466-0.046-0.686-0.137L34.459,60.14 c-0.917-0.378-1.356-1.433-0.978-2.35l10.292-24.95c1.987-4.816,6.638-7.928,11.848-7.928c1.675,0,3.316,0.327,4.88,0.972 c2.911,1.201,5.181,3.463,6.39,6.371c1.21,2.908,1.214,6.112,0.013,9.024L56.222,67.17C55.943,67.847,55.29,68.284,54.558,68.284 z"></path><path fill="#472b29" d="M55.622,24.21v1.4c1.583,0,3.134,0.309,4.612,0.919c2.738,1.129,4.873,3.258,6.011,5.993 c1.138,2.735,1.142,5.75,0.012,8.488L55.575,66.904c-0.171,0.414-0.57,0.681-1.018,0.681c-0.143,0-0.284-0.028-0.419-0.084 l-19.413-8.008c-0.272-0.112-0.483-0.323-0.596-0.594c-0.113-0.271-0.113-0.57-0.001-0.842l10.292-24.951 c1.878-4.553,6.274-7.495,11.2-7.495L55.622,24.21 M55.621,24.21c-5.308,0-10.344,3.149-12.494,8.361L32.834,57.522 c-0.527,1.276,0.081,2.738,1.358,3.264l19.413,8.008c0.312,0.129,0.635,0.19,0.953,0.19c0.982,0,1.914-0.583,2.312-1.547 l10.681-25.894c2.631-6.377-0.406-13.679-6.783-16.309h0C59.082,24.54,57.338,24.21,55.621,24.21L55.621,24.21z"></path><path fill="#f4989e" d="M60.768,25.432L60.768,25.432c6.377,2.607,9.414,9.844,6.783,16.164 c-1.662-1.205-4.817-1.422-5.961,1.326c-0.527,1.265-2.288,5.497-5.061,4.364c-4.622-1.89,3.109-12.667-1.514-14.557 c-4.622-1.89-8.597,5.062-11.371,3.928c-0.924-0.378-1.468-1.672-0.518-3.954C45.972,25.868,53.87,22.612,60.768,25.432z"></path><path fill="#472b29" d="M57.479,47.986c-0.372,0-0.752-0.079-1.139-0.237c-2.711-1.108-1.868-4.541-1.054-7.861 c0.877-3.573,1.319-5.969-0.46-6.696c-2.348-0.959-4.614,0.688-6.615,2.141c-1.689,1.228-3.287,2.388-4.755,1.787 c-0.506-0.207-0.891-0.599-1.114-1.134c-0.256-0.616-0.408-1.719,0.324-3.475c2.945-7.079,11.151-10.462,18.292-7.542l0,0 c3.222,1.317,5.729,3.802,7.057,6.997c1.317,3.167,1.317,6.655-0.001,9.822c-0.059,0.141-0.179,0.248-0.326,0.289 c-0.148,0.042-0.306,0.013-0.429-0.076c-0.931-0.674-2.263-0.926-3.312-0.63c-0.879,0.247-1.516,0.834-1.895,1.744 C60.704,46.354,59.17,47.986,57.479,47.986z M53.379,31.903c0.596,0,1.205,0.109,1.826,0.363c2.71,1.108,1.867,4.541,1.053,7.86 c-0.877,3.573-1.318,5.969,0.461,6.697c1.53,0.627,3.018-0.749,4.409-4.093c0.496-1.189,1.376-1.992,2.547-2.322 c1.154-0.325,2.517-0.148,3.628,0.445c0.997-2.769,0.926-5.766-0.212-8.503c-1.226-2.947-3.538-5.24-6.513-6.456l0,0 c-6.633-2.712-14.254,0.429-16.99,7.001c-0.467,1.123-0.582,2.084-0.323,2.707c0.12,0.288,0.311,0.487,0.569,0.592 c0.949,0.39,2.33-0.611,3.789-1.671C49.27,33.328,51.231,31.903,53.379,31.903z"></path><path fill="#472b29" d="M47.5,59.125c-1.241,0-2.25-1.009-2.25-2.25c0-0.138,0.112-0.25,0.25-0.25s0.25,0.112,0.25,0.25 c0,0.965,0.785,1.75,1.75,1.75s1.75-0.785,1.75-1.75V53.5c0-0.138,0.112-0.25,0.25-0.25s0.25,0.112,0.25,0.25v3.375 C49.75,58.116,48.741,59.125,47.5,59.125z"></path><path fill="#472b29" d="M45.5,55.75c-0.138,0-0.25-0.112-0.25-0.25v-4c0-0.138,0.112-0.25,0.25-0.25s0.25,0.112,0.25,0.25 v4C45.75,55.638,45.638,55.75,45.5,55.75z"></path><path fill="#472b29" d="M51.5,45.75c-0.138,0-0.25-0.112-0.25-0.25v-3c0-0.138,0.112-0.25,0.25-0.25s0.25,0.112,0.25,0.25 v3C51.75,45.638,51.638,45.75,51.5,45.75z"></path><path fill="#472b29" d="M49.5,48.25c-1.241,0-2.25-1.009-2.25-2.25v-1.5c0-0.138,0.112-0.25,0.25-0.25 s0.25,0.112,0.25,0.25V46c0,0.965,0.785,1.75,1.75,1.75c0.592,0,1.14-0.296,1.465-0.792c0.076-0.115,0.231-0.147,0.346-0.072 c0.116,0.076,0.148,0.231,0.072,0.346C50.965,47.87,50.261,48.25,49.5,48.25z"></path><path fill="#472b29" d="M43.5,54.125c-1.241,0-2.25-1.009-2.25-2.25V50.5c0-0.138,0.112-0.25,0.25-0.25 s0.25,0.112,0.25,0.25v1.375c0,0.965,0.785,1.75,1.75,1.75s1.75-0.785,1.75-1.75V50.5c0-0.138,0.112-0.25,0.25-0.25 s0.25,0.112,0.25,0.25v1.375C45.75,53.116,44.741,54.125,43.5,54.125z"></path><path fill="#472b29" d="M41.5,48.75c-0.138,0-0.25-0.112-0.25-0.25v-3c0-0.138,0.112-0.25,0.25-0.25s0.25,0.112,0.25,0.25 v3C41.75,48.638,41.638,48.75,41.5,48.75z"></path><path fill="#836f61" d="M56.5,71.5L56.5,71.5c-1.105,0-2-0.895-2-2v-13h4v13C58.5,70.605,57.605,71.5,56.5,71.5z"></path><path fill="#836f61" d="M52.5,74.5L52.5,74.5c-1.105,0-2-0.895-2-2v-13h4v13C54.5,73.605,53.605,74.5,52.5,74.5z"></path><path fill="#472b29" d="M56.5,72c-1.379,0-2.5-1.122-2.5-2.5v-5c0-0.276,0.224-0.5,0.5-0.5s0.5,0.224,0.5,0.5v5 c0,0.827,0.673,1.5,1.5,1.5s1.5-0.673,1.5-1.5v-12c0-0.276,0.224-0.5,0.5-0.5s0.5,0.224,0.5,0.5v12C59,70.878,57.879,72,56.5,72z"></path><path fill="#472b29" d="M50.5,63.906c-0.276,0-0.5-0.224-0.5-0.5V61.5c0-0.276,0.224-0.5,0.5-0.5s0.5,0.224,0.5,0.5v1.906 C51,63.682,50.776,63.906,50.5,63.906z"></path><path fill="#472b29" d="M52.5,75c-1.379,0-2.5-1.122-2.5-2.5V66c0-0.276,0.224-0.5,0.5-0.5S51,65.724,51,66v6.5 c0,0.827,0.673,1.5,1.5,1.5s1.5-0.673,1.5-1.5v-9c0-0.276,0.224-0.5,0.5-0.5s0.5,0.224,0.5,0.5v9C55,73.878,53.879,75,52.5,75z"></path><g><path fill="#472b29" d="M65.979,38.25c-0.005,0-0.01,0-0.015,0c-0.138-0.008-0.243-0.126-0.235-0.264 c0.102-1.765-0.155-3.435-0.763-4.963c-0.051-0.128,0.012-0.274,0.14-0.325c0.127-0.05,0.273,0.011,0.325,0.14 c0.635,1.596,0.902,3.338,0.798,5.177C66.221,38.147,66.11,38.25,65.979,38.25z"></path></g><g><path fill="#472b29" d="M64.307,31.464c-0.082,0-0.163-0.041-0.21-0.115c-0.846-1.316-2.004-2.443-3.353-3.259 c-0.118-0.072-0.155-0.225-0.084-0.343c0.071-0.118,0.226-0.155,0.344-0.084c1.412,0.855,2.627,2.037,3.513,3.417 c0.075,0.116,0.041,0.271-0.075,0.345C64.399,31.451,64.354,31.464,64.307,31.464z"></path></g><g><path fill="#472b29" d="M58.725,27.133c-0.026,0-0.053-0.004-0.079-0.013c-0.958-0.319-1.947-0.491-2.94-0.513 c-0.138-0.003-0.247-0.117-0.244-0.255s0.126-0.249,0.256-0.245c1.042,0.023,2.08,0.204,3.087,0.538 c0.131,0.044,0.202,0.185,0.158,0.316C58.927,27.067,58.829,27.133,58.725,27.133z"></path></g></g></svg>