<svg xmlns="http://www.w3.org/2000/svg" viewBox="0 0 100 100"><path fill="#c7ede6" d="M87.215,56.71C88.35,54.555,89,52.105,89,49.5c0-6.621-4.159-12.257-10.001-14.478 C78.999,35.015,79,35.008,79,35c0-11.598-9.402-21-21-21c-9.784,0-17.981,6.701-20.313,15.757C36.211,29.272,34.638,29,33,29 c-7.692,0-14.023,5.793-14.89,13.252C12.906,43.353,9,47.969,9,53.5C9,59.851,14.149,65,20.5,65c0.177,0,0.352-0.012,0.526-0.022 C21.022,65.153,21,65.324,21,65.5C21,76.822,30.178,86,41.5,86c6.437,0,12.175-2.972,15.934-7.614C59.612,80.611,62.64,82,66,82 c4.65,0,8.674-2.65,10.666-6.518C77.718,75.817,78.837,76,80,76c6.075,0,11-4.925,11-11C91,61.689,89.53,58.727,87.215,56.71z"></path><path fill="#fff" d="M81.405,40H71.5c-0.276,0-0.5-0.224-0.5-0.5s0.224-0.5,0.5-0.5h9.905c0.276,0,0.5,0.224,0.5,0.5 S81.682,40,81.405,40z"></path><path fill="#fff" d="M84.5,40h-1c-0.276,0-0.5-0.224-0.5-0.5s0.224-0.5,0.5-0.5h1c0.276,0,0.5,0.224,0.5,0.5 S84.777,40,84.5,40z"></path><path fill="#fff" d="M89.491,42H80.5c-0.276,0-0.5-0.224-0.5-0.5s0.224-0.5,0.5-0.5h8.991c0.276,0,0.5,0.224,0.5,0.5 S89.767,42,89.491,42z"></path><path fill="#fff" d="M78.5,42h-1c-0.276,0-0.5-0.224-0.5-0.5s0.224-0.5,0.5-0.5h1c0.276,0,0.5,0.224,0.5,0.5 S78.777,42,78.5,42z"></path><path fill="#fff" d="M75.5,42h-2c-0.276,0-0.5-0.224-0.5-0.5s0.224-0.5,0.5-0.5h2c0.276,0,0.5,0.224,0.5,0.5 S75.777,42,75.5,42z"></path><path fill="#fff" d="M81.5,44h-2c-0.276,0-0.5-0.224-0.5-0.5s0.224-0.5,0.5-0.5h2c0.276,0,0.5,0.224,0.5,0.5 S81.776,44,81.5,44z"></path><path fill="#fff" d="M84.5,35c-0.177,0-0.823,0-1,0c-0.276,0-0.5,0.224-0.5,0.5c0,0.276,0.224,0.5,0.5,0.5 c0.177,0,0.823,0,1,0c0.276,0,0.5-0.224,0.5-0.5C85,35.224,84.776,35,84.5,35z"></path><path fill="#fff" d="M84.5,37c-0.177,0-4.823,0-5,0c-0.276,0-0.5,0.224-0.5,0.5c0,0.276,0.224,0.5,0.5,0.5 c0.177,0,4.823,0,5,0c0.276,0,0.5-0.224,0.5-0.5C85,37.224,84.776,37,84.5,37z"></path><path fill="#fff" d="M89.5,39c-0.177,0-2.823,0-3,0c-0.276,0-0.5,0.224-0.5,0.5c0,0.276,0.224,0.5,0.5,0.5 c0.177,0,2.823,0,3,0c0.276,0,0.5-0.224,0.5-0.5C90,39.224,89.776,39,89.5,39z"></path><g><path fill="#fff" d="M15.5,54h-10C5.224,54,5,53.776,5,53.5S5.224,53,5.5,53h10c0.276,0,0.5,0.224,0.5,0.5 S15.776,54,15.5,54z"></path><path fill="#fff" d="M19.5,54h-2c-0.276,0-0.5-0.224-0.5-0.5s0.224-0.5,0.5-0.5h2c0.276,0,0.5,0.224,0.5,0.5 S19.776,54,19.5,54z"></path><path fill="#fff" d="M24.5,56h-10c-0.276,0-0.5-0.224-0.5-0.5s0.224-0.5,0.5-0.5h10c0.276,0,0.5,0.224,0.5,0.5 S24.777,56,24.5,56z"></path><path fill="#fff" d="M12.5,56h-1c-0.276,0-0.5-0.224-0.5-0.5s0.224-0.5,0.5-0.5h1c0.276,0,0.5,0.224,0.5,0.5 S12.776,56,12.5,56z"></path><path fill="#fff" d="M9.47,56H7.5C7.224,56,7,55.776,7,55.5S7.224,55,7.5,55h1.97c0.276,0,0.5,0.224,0.5,0.5 S9.746,56,9.47,56z"></path><path fill="#fff" d="M18.5,52h-5c-0.276,0-0.5-0.224-0.5-0.5s0.224-0.5,0.5-0.5h5c0.276,0,0.5,0.224,0.5,0.5 S18.777,52,18.5,52z"></path><path fill="#fff" d="M15.5,58h-2c-0.276,0-0.5-0.224-0.5-0.5s0.224-0.5,0.5-0.5h2c0.276,0,0.5,0.224,0.5,0.5 S15.776,58,15.5,58z"></path></g><g><path fill="#fdfcef" d="M37.625,40.5c0,0,3.64,0,6.125,0s4.5-2.015,4.5-4.5c0-2.333-1.782-4.229-4.055-4.455 c0.022-0.181,0.055-0.358,0.055-0.545c0-2.485-2.015-4.5-4.5-4.5c-1.438,0-2.703,0.686-3.527,1.736 C36.083,25.6,33.921,23.5,31.25,23.5c-2.761,0-5,2.239-5,5c0,0.446,0.077,0.87,0.187,1.282c-0.642-0.777-1.6-1.282-2.687-1.282 c-1.781,0-3.234,1.335-3.455,3.055c-0.181-0.022-0.358-0.055-0.545-0.055c-2.485,0-4.5,2.015-4.5,4.5s2.015,4.5,4.5,4.5 s9.5,0,9.5,0h5.375V41h3V40.5z"></path><path fill="#472b29" d="M31.25,23c-3.033,0-5.5,2.467-5.5,5.5c0,0.016,0,0.031,0,0.047c-0.602-0.354-1.29-0.547-2-0.547 c-1.831,0-3.411,1.261-3.858,3.005C19.845,31.002,19.798,31,19.75,31c-2.757,0-5,2.243-5,5s2.243,5,5,5h14.875 c0.276,0,0.5-0.224,0.5-0.5s-0.224-0.5-0.5-0.5H19.75c-2.206,0-4-1.794-4-4s1.794-4,4-4c0.117,0,0.23,0.017,0.343,0.032 l0.141,0.019c0.021,0.003,0.041,0.004,0.062,0.004c0.246,0,0.462-0.185,0.495-0.437C20.982,30.125,22.254,29,23.75,29 c0.885,0,1.723,0.401,2.301,1.1c0.098,0.118,0.241,0.182,0.386,0.182c0.078,0,0.156-0.018,0.228-0.056 c0.209-0.107,0.314-0.346,0.254-0.573c-0.116-0.436-0.17-0.802-0.17-1.153c0-2.481,2.019-4.5,4.5-4.5 c2.381,0,4.347,1.872,4.474,4.263c0.011,0.208,0.15,0.387,0.349,0.45c0.05,0.016,0.101,0.024,0.152,0.024 c0.15,0,0.296-0.069,0.392-0.192C37.388,27.563,38.529,27,39.75,27c2.206,0,4,1.794,4,4c0,0.117-0.017,0.23-0.032,0.343 l-0.019,0.141c-0.016,0.134,0.022,0.268,0.106,0.373c0.084,0.105,0.207,0.172,0.34,0.185c2.055,0.205,3.604,1.906,3.604,3.958 c0,2.206-1.794,4-4,4h-6.125c-0.276,0-0.5,0.224-0.5,0.5s0.224,0.5,0.5,0.5h6.125c2.757,0,5-2.243,5-5 c0-2.397-1.689-4.413-4.003-4.877c0.002-0.041,0.003-0.082,0.003-0.123c0-2.757-2.243-5-5-5c-1.176,0-2.293,0.416-3.183,1.164 C35.969,24.76,33.805,23,31.25,23L31.25,23z"></path><path fill="#472b29" d="M29.75,30c-1.403,0-2.609,0.999-2.913,2.341C26.47,32.119,26.051,32,25.625,32 c-1.202,0-2.198,0.897-2.353,2.068C23.069,34.022,22.876,34,22.687,34c-1.529,0-2.811,1.2-2.918,2.732 C19.76,36.87,19.864,36.99,20.001,37c0.006,0,0.012,0,0.018,0c0.13,0,0.24-0.101,0.249-0.232c0.089-1.271,1.151-2.268,2.419-2.268 c0.229,0,0.47,0.042,0.738,0.127c0.022,0.007,0.045,0.01,0.067,0.01c0.055,0,0.11-0.02,0.156-0.054 c0.064-0.047,0.102-0.129,0.102-0.209c0-1.034,0.841-1.875,1.875-1.875c0.447,0,0.885,0.168,1.231,0.473 c0.047,0.041,0.106,0.063,0.165,0.063c0.032,0,0.063-0.006,0.093-0.019c0.088-0.035,0.148-0.117,0.155-0.212 c0.102-1.292,1.191-2.305,2.479-2.305c0.208,0,0.425,0.034,0.682,0.107c0.023,0.007,0.047,0.01,0.07,0.01 c0.109,0,0.207-0.073,0.239-0.182c0.038-0.133-0.039-0.271-0.172-0.309C30.267,30.04,30.006,30,29.75,30L29.75,30z"></path></g><g><path fill="#8889b9" d="M59.878,44l-2.186-0.665l4.81-15.805C62.962,26.017,64.334,25,65.916,25H72.5v2.286h-6.584 c-0.568,0-1.061,0.365-1.226,0.909L59.878,44z"></path><path fill="#472b29" d="M59.878,44.25c-0.024,0-0.049-0.003-0.073-0.011l-2.186-0.665 c-0.063-0.02-0.116-0.063-0.147-0.122s-0.038-0.127-0.019-0.19l4.811-15.806c0.491-1.619,1.959-2.707,3.652-2.707H72.5 c0.138,0,0.25,0.112,0.25,0.25v2.286c0,0.138-0.112,0.25-0.25,0.25h-6.584c-0.458,0-0.854,0.294-0.987,0.731l-4.812,15.806 C60.084,44.181,59.985,44.25,59.878,44.25z M58.004,43.168l1.708,0.52l4.738-15.566c0.197-0.649,0.786-1.086,1.466-1.086h6.334 V25.25h-6.334c-1.472,0-2.747,0.945-3.174,2.352L58.004,43.168z"></path><path fill="#f4989e" d="M55,70.826L55,70.826c0-0.423,0.244-0.795,0.614-1.001C62.249,66.146,65,54.19,65,40 c0-0.641-0.009-1.276-0.027-1.907C64.956,37.482,64.449,37,63.838,37H38.162c-0.611,0-1.117,0.482-1.135,1.093 C37.009,38.724,37,39.359,37,40c0,14.19,2.751,26.146,9.386,29.826C46.756,70.031,47,70.403,47,70.826v0 c0,0.478-0.306,0.888-0.75,1.063c-2.347,0.923-4.232,2.505-5.294,4.455C40.549,77.09,41.116,78,41.965,78h18.07 c0.849,0,1.416-0.91,1.009-1.656c-1.062-1.95-2.947-3.532-5.294-4.455C55.306,71.715,55,71.304,55,70.826z"></path><path fill="#edf7f5" d="M59.308,30.663c0.113-0.37,0.192-0.756,0.192-1.163c0-2.209-1.791-4-4-4 c-0.372,0-0.725,0.067-1.067,0.162C54.474,25.447,54.5,25.227,54.5,25c0-1.933-1.567-3.5-3.5-3.5 c-1.832,0-3.318,1.412-3.47,3.205C45.207,25.349,43.5,27.472,43.5,30c-3.038,0-5.5,2.462-5.5,5.5s2.462,5.5,5.5,5.5 c1.39,0,2.656-0.52,3.625-1.371C47.834,40.75,49.076,41.5,50.5,41.5c1.424,0,2.666-0.75,3.375-1.871 C54.883,40.774,56.355,41.5,58,41.5c3.038,0,5.5-2.462,5.5-5.5C63.5,33.414,61.713,31.251,59.308,30.663z"></path><path fill="#472b29" d="M58,42c-1.513,0-2.966-0.577-4.07-1.6c-0.851,1.011-2.094,1.6-3.43,1.6 c-1.359,0-2.622-0.609-3.473-1.653C46.004,41.094,44.771,41.5,43.5,41.5c-3.309,0-6-2.691-6-6c0-3.146,2.435-5.735,5.52-5.981 c0.192-2.372,1.791-4.43,4.055-5.197C47.397,22.406,49.029,21,51,21c2.206,0,4,1.794,4,4c0,0.011,0,0.022,0,0.034 C55.171,25.011,55.336,25,55.5,25c2.481,0,4.5,2.019,4.5,4.5c0,0.263-0.029,0.533-0.088,0.818C62.343,31.131,64,33.4,64,36 C64,39.309,61.309,42,58,42z M53.875,39.129c0.143,0,0.28,0.062,0.375,0.169C55.202,40.38,56.569,41,58,41c2.757,0,5-2.243,5-5 c0-2.308-1.567-4.303-3.812-4.851c-0.133-0.033-0.247-0.119-0.315-0.239s-0.084-0.262-0.044-0.394 C58.946,30.137,59,29.813,59,29.5c0-1.93-1.57-3.5-3.5-3.5c-0.282,0-0.578,0.046-0.933,0.144 c-0.166,0.046-0.345,0.004-0.473-0.114c-0.127-0.117-0.185-0.292-0.152-0.461C53.978,25.384,54,25.194,54,25c0-1.654-1.346-3-3-3 c-1.562,0-2.84,1.181-2.973,2.748c-0.018,0.208-0.163,0.383-0.364,0.439C45.506,25.785,44,27.764,44,30 c0,0.276-0.224,0.5-0.5,0.5c-2.757,0-5,2.243-5,5s2.243,5,5,5c1.21,0,2.38-0.443,3.295-1.247c0.109-0.097,0.259-0.139,0.401-0.12 c0.145,0.021,0.273,0.104,0.352,0.228C48.196,40.388,49.3,41,50.5,41s2.304-0.612,2.952-1.638 c0.085-0.133,0.227-0.219,0.384-0.231C53.849,39.13,53.862,39.129,53.875,39.129z"></path><rect width="8" height="3" x="47" y="69" fill="#edf7f5"></rect><path fill="#edf7f5" d="M59.674,78c1.062,0,1.69-1.168,1.13-2.07C58.989,73.005,55.284,71,51,71s-7.989,2.005-9.804,4.93 c-0.56,0.902,0.068,2.07,1.13,2.07H59.674z"></path><path fill="#472b29" d="M47,77.5c-0.276,0-0.5-0.224-0.5-0.5c0-3.246,2.631-4.861,2.743-4.929 c0.236-0.142,0.541-0.064,0.685,0.17c0.143,0.236,0.066,0.543-0.169,0.687C49.666,72.984,47.5,74.332,47.5,77 C47.5,77.276,47.276,77.5,47,77.5z"></path><path fill="#472b29" d="M55,77.5c-0.276,0-0.5-0.224-0.5-0.5c0-2.668-2.166-4.016-2.259-4.072 c-0.235-0.144-0.312-0.45-0.169-0.687c0.144-0.235,0.45-0.313,0.685-0.17C52.869,72.139,55.5,73.754,55.5,77 C55.5,77.276,55.276,77.5,55,77.5z"></path><rect width="26" height="6" x="38" y="38" fill="#edf7f5"></rect><path fill="#472b29" d="M38.429,38.051h0.005H38.429 M63.58,38.4c0.013,0.53,0.02,1.063,0.02,1.6 c0,15.162-3.172,25.595-8.704,28.623c-0.799,0.438-1.296,1.262-1.296,2.151v0.112c0,1.015,0.624,1.913,1.589,2.287 c1.902,0.737,3.437,1.942,4.382,3.427H42.429c0.945-1.485,2.48-2.69,4.382-3.427c0.965-0.374,1.589-1.271,1.589-2.287v-0.112 c0-0.889-0.497-1.714-1.296-2.152C41.572,65.595,38.4,55.162,38.4,40c0-0.537,0.007-1.07,0.02-1.6H63.58 M63.921,37H38.079 c-0.565,0-1.033,0.446-1.049,1.01C37.01,38.668,37,39.331,37,40c0,14.223,2.764,26.201,9.431,29.851 C46.775,70.039,47,70.383,47,70.774v0.112c0,0.441-0.283,0.822-0.695,0.981c-2.422,0.939-4.359,2.579-5.416,4.601 C40.526,77.165,41.039,78,41.824,78h18.352c0.785,0,1.298-0.835,0.935-1.531c-1.057-2.023-2.994-3.663-5.416-4.601 C55.283,71.708,55,71.328,55,70.886v-0.112c0-0.391,0.225-0.736,0.569-0.924C62.236,66.201,65,54.223,65,40 c0-0.669-0.01-1.332-0.03-1.99C64.954,37.446,64.486,37,63.921,37L63.921,37z"></path><path fill="#472b29" d="M41.5,45h-3c-0.276,0-0.5-0.224-0.5-0.5s0.224-0.5,0.5-0.5h3c0.276,0,0.5,0.224,0.5,0.5 S41.776,45,41.5,45z"></path><path fill="#472b29" d="M48.5,45h-5c-0.276,0-0.5-0.224-0.5-0.5s0.224-0.5,0.5-0.5h5c0.276,0,0.5,0.224,0.5,0.5 S48.776,45,48.5,45z"></path><path fill="#472b29" d="M54.917,70h-7.834c-0.276,0-0.5-0.224-0.5-0.5s0.224-0.5,0.5-0.5h7.834c0.276,0,0.5,0.224,0.5,0.5 S55.193,70,54.917,70z"></path><path fill="#472b29" d="M55.5,73h-8c-0.276,0-0.5-0.224-0.5-0.5s0.224-0.5,0.5-0.5h8c0.276,0,0.5,0.224,0.5,0.5 S55.776,73,55.5,73z"></path><path fill="#472b29" d="M63.5,45h-12c-0.276,0-0.5-0.224-0.5-0.5s0.224-0.5,0.5-0.5h12c0.276,0,0.5,0.224,0.5,0.5 S63.776,45,63.5,45z"></path><path fill="#472b29" d="M54.35,33.324c-0.16,0-0.317-0.077-0.414-0.22c-0.511-0.757-1.223-1.349-2.059-1.711 c-0.253-0.11-0.369-0.404-0.26-0.658s0.402-0.37,0.658-0.259c1.011,0.438,1.871,1.154,2.488,2.069 c0.155,0.229,0.095,0.54-0.135,0.694C54.544,33.296,54.446,33.324,54.35,33.324z"></path><path fill="#472b29" d="M46.562,32.258c-0.141,0-0.281-0.06-0.38-0.175c-0.18-0.21-0.154-0.526,0.056-0.705 c0.984-0.84,2.24-1.329,3.535-1.374L49.979,30c0.276,0,0.5,0.224,0.5,0.5s-0.224,0.5-0.5,0.5l-0.17,0.003 c-1.088,0.039-2.098,0.431-2.924,1.136C46.792,32.219,46.677,32.258,46.562,32.258z"></path><path fill="#472b29" d="M44.708,36.271c-0.276,0-0.5-0.224-0.5-0.5c0-0.991,0.256-1.969,0.739-2.827 c0.136-0.241,0.442-0.325,0.681-0.19c0.241,0.135,0.326,0.44,0.19,0.681c-0.399,0.708-0.61,1.517-0.61,2.336 C45.208,36.047,44.984,36.271,44.708,36.271z"></path><g><path fill="#472b29" d="M45.396,26.375c-0.128,0-0.256-0.049-0.354-0.146c-0.195-0.195-0.195-0.512,0-0.707 c0.097-0.096,2.398-2.334,6.428-1.06c0.264,0.083,0.409,0.364,0.326,0.627c-0.083,0.263-0.364,0.412-0.627,0.326 c-3.464-1.094-5.401,0.794-5.42,0.813C45.651,26.326,45.523,26.375,45.396,26.375z"></path></g><g><path fill="#472b29" d="M56.688,31.167c-0.228,0-0.434-0.157-0.487-0.388c-0.062-0.269,0.106-0.537,0.375-0.599 c0.06-0.014,1.485-0.334,2.851-0.002c0.269,0.065,0.433,0.336,0.367,0.604s-0.339,0.433-0.604,0.367 c-1.129-0.276-2.377,0.002-2.391,0.005C56.762,31.163,56.725,31.167,56.688,31.167z"></path></g><g><path fill="#472b29" d="M46.688,66.021c-0.071,0-0.142-0.03-0.19-0.088c-1.414-1.668-2.619-4.082-3.582-7.175 c-0.041-0.132,0.032-0.272,0.164-0.313c0.132-0.041,0.272,0.032,0.313,0.165c0.943,3.028,2.116,5.383,3.486,7 c0.09,0.105,0.076,0.263-0.028,0.353C46.802,66.001,46.745,66.021,46.688,66.021z"></path></g><g><path fill="#472b29" d="M42.668,57.239c-0.111,0-0.212-0.074-0.242-0.187c-0.322-1.229-0.61-2.548-0.856-3.922 c-0.024-0.136,0.066-0.266,0.202-0.29c0.134-0.025,0.266,0.066,0.29,0.202c0.244,1.361,0.529,2.667,0.849,3.883 c0.034,0.134-0.045,0.271-0.179,0.305C42.71,57.236,42.688,57.239,42.668,57.239z"></path></g><g><path fill="#472b29" d="M41.51,51.457c-0.122,0-0.229-0.089-0.247-0.214c-0.349-2.381-0.449-4.066-0.45-4.083 c-0.008-0.138,0.098-0.256,0.235-0.264c0.131-0.017,0.256,0.097,0.265,0.235c0.001,0.017,0.1,1.682,0.444,4.04 c0.021,0.137-0.074,0.264-0.211,0.284C41.533,51.456,41.521,51.457,41.51,51.457z"></path></g></g><g><path fill="#fdfcef" d="M76.375,61.5c0,0,1.567,0,3.5,0s3.5-1.567,3.5-3.5c0-1.781-1.335-3.234-3.055-3.455 c0.028-0.179,0.055-0.358,0.055-0.545c0-1.933-1.567-3.5-3.5-3.5c-1.032,0-1.95,0.455-2.59,1.165 c-0.384-1.808-1.987-3.165-3.91-3.165c-2.209,0-4,1.791-4,4c0,0.191,0.03,0.374,0.056,0.558c-0.428-0.344-0.965-0.558-1.556-0.558 c-1.228,0-2.245,0.887-2.455,2.055c-0.179-0.028-0.358-0.055-0.545-0.055c-1.933,0-3.5,1.567-3.5,3.5s1.567,3.5,3.5,3.5 s7.5,0,7.5,0V62h7V61.5z"></path><path fill="#472b29" d="M78.125,57c-0.138,0-0.25-0.112-0.25-0.25c0-1.223,0.995-2.218,2.218-2.218 c0.034,0.009,0.737-0.001,1.244,0.136c0.133,0.036,0.212,0.173,0.176,0.306c-0.036,0.134-0.173,0.213-0.306,0.176 c-0.444-0.12-1.1-0.12-1.113-0.118c-0.948,0-1.719,0.771-1.719,1.718C78.375,56.888,78.263,57,78.125,57z"></path><circle cx="71.375" cy="61.5" r=".5" fill="#472b29"></circle><path fill="#472b29" d="M79.875,62h-3.5c-0.276,0-0.5-0.224-0.5-0.5s0.224-0.5,0.5-0.5h3.5c1.654,0,3-1.346,3-3 c0-1.496-1.125-2.768-2.618-2.959c-0.134-0.018-0.255-0.088-0.336-0.196s-0.115-0.244-0.094-0.377 c0.024-0.153,0.049-0.308,0.049-0.468c0-1.654-1.346-3-3-3c-0.85,0-1.638,0.355-2.219,1c-0.125,0.139-0.321,0.198-0.5,0.148 c-0.182-0.049-0.321-0.195-0.36-0.379C73.455,50.165,72.016,49,70.375,49c-1.93,0-3.5,1.57-3.5,3.5 c0,0.143,0.021,0.28,0.041,0.418c0.029,0.203-0.063,0.438-0.242,0.54c-0.179,0.102-0.396,0.118-0.556-0.01 C65.753,53.155,65.324,53,64.875,53c-0.966,0-1.792,0.691-1.963,1.644c-0.048,0.267-0.296,0.446-0.569,0.405 C62.189,55.025,62.035,55,61.875,55c-1.654,0-3,1.346-3,3s1.346,3,3,3h7.5c0.276,0,0.5,0.224,0.5,0.5s-0.224,0.5-0.5,0.5h-7.5 c-2.206,0-4-1.794-4-4s1.794-4,4-4c0.059,0,0.116,0.002,0.174,0.006C62.463,52.82,63.586,52,64.875,52 c0.349,0,0.689,0.061,1.011,0.18c0.165-2.333,2.115-4.18,4.489-4.18c1.831,0,3.466,1.127,4.153,2.774 C75.208,50.276,76.03,50,76.875,50c2.206,0,4,1.794,4,4c0,0.048-0.001,0.095-0.004,0.142c1.743,0.448,3.004,2.027,3.004,3.858 C83.875,60.206,82.081,62,79.875,62z"></path><path fill="#472b29" d="M74.375,61c-0.159,0-0.841,0-1,0c-0.276,0-0.5,0.224-0.5,0.5c0,0.276,0.224,0.5,0.5,0.5 c0.159,0,0.841,0,1,0c0.276,0,0.5-0.224,0.5-0.5C74.875,61.224,74.651,61,74.375,61z"></path></g><g><path fill="#472b29" d="M64.188,27.583c-0.032,0-0.065-0.006-0.097-0.02l-1.292-0.542c-0.127-0.053-0.188-0.2-0.134-0.327 c0.053-0.127,0.201-0.188,0.327-0.134l1.292,0.542c0.127,0.053,0.188,0.2,0.134,0.327C64.378,27.526,64.285,27.583,64.188,27.583z"></path><path fill="#472b29" d="M64.708,26.833c-0.083,0-0.164-0.042-0.212-0.117l-0.666-1.063 c-0.073-0.117-0.038-0.271,0.079-0.345c0.116-0.072,0.271-0.039,0.345,0.079l0.666,1.063c0.073,0.117,0.038,0.271-0.079,0.345 C64.8,26.821,64.754,26.833,64.708,26.833z"></path><path fill="#472b29" d="M65.604,26.708c-0.135,0-0.246-0.107-0.25-0.242l-0.042-1.375 c-0.004-0.138,0.104-0.253,0.242-0.258c0.003,0,0.006,0,0.008,0c0.135,0,0.246,0.107,0.25,0.242l0.042,1.375 c0.004,0.138-0.104,0.253-0.242,0.258C65.609,26.708,65.606,26.708,65.604,26.708z"></path></g></svg>