<svg xmlns="http://www.w3.org/2000/svg" viewBox="0 0 64 64"><g data-name="Fill Outline"><circle cx="33" cy="38" r="23" fill="#f9e109"></circle><path fill="#fcbc04" d="M40,52A23,23,0,0,1,18.905,19.831,23,23,0,1,0,54.1,47.169,22.9,22.9,0,0,1,40,52Z"></path><path fill="#e6f0f0" d="M5,23H9a0,0,0,0,1,0,0V54a2,2,0,0,1-2,2H7a2,2,0,0,1-2-2V23A0,0,0,0,1,5,23Z"></path><path fill="#d0d8da" d="M57,23h4a0,0,0,0,1,0,0V50a2,2,0,0,1-2,2h0a2,2,0,0,1-2-2V23A0,0,0,0,1,57,23Z"></path><path fill="#e6f0f0" d="M61,3h0a0,0,0,0,1,0,0V23a0,0,0,0,1,0,0H57a4,4,0,0,1-4-4V11a8,8,0,0,1,8-8Z"></path><path fill="#e6f0f0" d="M3,18h8a0,0,0,0,1,0,0v3a3,3,0,0,1-3,3H6a3,3,0,0,1-3-3V18A0,0,0,0,1,3,18Z"></path><path fill="#fcbc04" d="M45.817,28.222A10.995,10.995,0,0,0,28.054,37.89a10.241,10.241,0,0,1-2.548,8.22,7.3,7.3,0,0,0-.8.973A7,7,0,0,0,35.464,55.95L46.778,44.636A11,11,0,0,0,45.817,28.222Z"></path><path fill="#f89c8d" d="M46.817,26.222A10.995,10.995,0,0,0,29.054,35.89a10.241,10.241,0,0,1-2.548,8.22,7.3,7.3,0,0,0-.8.973A7,7,0,0,0,36.464,53.95L47.778,42.636A11,11,0,0,0,46.817,26.222Z"></path><circle cx="40.707" cy="34.151" r="4" fill="#fcc"></circle><path fill="#f8664f" d="M50.778,33.636,39.464,44.95a7.007,7.007,0,0,1-10.793-1.086,6.727,6.727,0,0,1-.789-1.631,8.5,8.5,0,0,1-1.376,1.877,7.3,7.3,0,0,0-.8.973A7,7,0,0,0,36.464,53.95L47.778,42.636A10.966,10.966,0,0,0,50.9,33.5C50.86,33.542,50.823,33.591,50.778,33.636Z"></path><circle cx="40.707" cy="34.151" r="2" fill="#ffe9e9"></circle><path fill="#d0d8da" d="M60,20a4,4,0,0,1-4-4V8a7.959,7.959,0,0,1,1.049-3.951A7.993,7.993,0,0,0,53,11v8a4,4,0,0,0,4,4h4V20Z"></path><path fill="#aeb6b7" d="M59,46V29a2.99,2.99,0,0,1,2-2.816V23H57V50a2,2,0,0,0,4,0V48.816A2.99,2.99,0,0,1,59,46Z"></path><path fill="#aeb6b7" d="M7,50V30a2.99,2.99,0,0,1,2-2.816V23H5V54a2,2,0,0,0,4,0V52.816A2.99,2.99,0,0,1,7,50Z"></path><path fill="#d0d8da" d="M10,22H8a3,3,0,0,1-3-3V18H3v3a3,3,0,0,0,3,3H8a2.99,2.99,0,0,0,2.86-2.14A2.983,2.983,0,0,1,10,22Z"></path><g data-name="Outlines copy"><path fill="#434951" d="M53.494,48.483a1,1,0,0,0-1.363.375,22,22,0,0,1-38.262,0,1,1,0,1,0-1.738.989,23.995,23.995,0,0,0,41.738,0A1,1,0,0,0,53.494,48.483Z"></path><path fill="#434951" d="M33,14A24.064,24.064,0,0,0,12.131,26.153a1,1,0,1,0,1.738.989,22,22,0,0,1,38.262,0,1,1,0,1,0,1.738-.989A24.064,24.064,0,0,0,33,14Z"></path><path fill="#434951" d="M61,24a1,1,0,0,0,1-1V3a1,1,0,0,0-1-1,9.01,9.01,0,0,0-9,9v8a5.009,5.009,0,0,0,4,4.9V50a3,3,0,0,0,6,0V27a1,1,0,0,0-2,0V50a1,1,0,0,1-2,0V24Zm-7-5V11a7.011,7.011,0,0,1,6-6.929V22H57A3,3,0,0,1,54,19Z"></path><path fill="#434951" d="M28.112,33.35a11.989,11.989,0,0,0-.052,2.634,9.289,9.289,0,0,1-2.27,7.428,8.4,8.4,0,0,0-.906,1.1,7.967,7.967,0,0,0-.041,8.908,8.119,8.119,0,0,0,3.423,2.881.647.647,0,0,0,.077.03,7.943,7.943,0,0,0,2.4.628q.389.038.774.037a7.975,7.975,0,0,0,5.651-2.343L48.485,43.344l0,0a11.981,11.981,0,0,0-9.9-20.381h0l-.009,0a11.805,11.805,0,0,0-5.865,2.358,12.046,12.046,0,0,0-3.273,3.869,1,1,0,0,0,1.762.946,10.137,10.137,0,0,1,1.435-2.017V51.664a1,1,0,0,0,2,0V26.412a9.807,9.807,0,0,1,2.95-1.255v1.611a1,1,0,0,0,2,0V24.881a10.182,10.182,0,0,1,2.949.308v2.133a1,1,0,1,0,2,0V25.949A9.641,9.641,0,0,1,46.194,27a9.976,9.976,0,0,1,2.584,12.619v-4.54a1,1,0,0,0-2,0v7.139l-2.243,2.243V37.33a4.942,4.942,0,1,0-2,1.469v7.666l-2.949,2.95V41.534a1,1,0,0,0-2,0v9.881l-1.828,1.828a6,6,0,0,1-4.821,1.729,5.9,5.9,0,0,1-1.25-.261V51a1,1,0,0,0-2,0v2.6A6.219,6.219,0,0,1,26.5,52.3a5.954,5.954,0,0,1,.032-6.655,6.308,6.308,0,0,1,.69-.84c.165-.17.312-.358.465-.541V47a1,1,0,0,0,2,0V40.325A12.868,12.868,0,0,0,30.05,35.8a10,10,0,0,1,.047-2.2,1,1,0,1,0-1.985-.249Zm10.474,2.922a3,3,0,1,1,4.242,0A3.07,3.07,0,0,1,38.586,36.272Z"></path><path fill="#434951" d="M40,33.444a1,1,0,1,0,1.414,0A1,1,0,0,0,40,33.444Z"></path><path fill="#434951" d="M45.293,50.293a1,1,0,1,0,1.414,0A1,1,0,0,0,45.293,50.293Z"></path><path fill="#434951" d="M40.293,54.293a1,1,0,1,0,1.414,0A1,1,0,0,0,40.293,54.293Z"></path><path fill="#434951" d="M20.293,51.293a1,1,0,1,0,1.414,0A1,1,0,0,0,20.293,51.293Z"></path><path fill="#434951" d="M47.293,47.293a1,1,0,1,0,1.414,0A1,1,0,0,0,47.293,47.293Z"></path><path fill="#434951" d="M25.707,39.707a1,1,0,1,0-1.414,0A1,1,0,0,0,25.707,39.707Z"></path><path fill="#434951" d="M39.707,20.707a1,1,0,1,0-1.414,0A1,1,0,0,0,39.707,20.707Z"></path><path fill="#434951" d="M14.8,36.394A1,1,0,0,0,13.2,37.606l2.708,3.555c.04.462.088.925.165,1.386l.937,5.618A1,1,0,0,0,18,49a.927.927,0,0,0,.165-.014,1,1,0,0,0,.822-1.151l-.936-5.617c-.02-.119-.026-.238-.043-.357L19.929,42,20,42a1,1,0,0,0,.07-2l-2.216-.157a15.258,15.258,0,0,1,.095-2l1.5.986a1,1,0,1,0,1.1-1.67l-2.177-1.431c.083-.311.17-.619.272-.924l3,1.127A1.038,1.038,0,0,0,22,36a1,1,0,0,0,.352-1.937l-2.941-1.1a15.672,15.672,0,0,1,.782-1.409l4.51,1.4a1,1,0,0,0,.594-1.91l-3.866-1.2A14.145,14.145,0,0,1,23.7,27.709l4,1.246a1,1,0,1,0,.594-1.91l-2.372-.738A17.115,17.115,0,0,1,28.293,25.3,1,1,0,1,0,27.65,23.4a18.963,18.963,0,0,0-3.131,1.4l.441-1.519a1,1,0,1,0-1.92-.558l-1,3.445a.964.964,0,0,0-.027.315c-.351.285-.69.581-1.013.891V25a1,1,0,0,0-2,0v4.72c-.08.114-.165.225-.242.341-.131.2-.241.4-.363.6l-.418-1.882a1,1,0,0,0-1.954.434l.961,4.322c-.046.12-.09.24-.133.361l-1.032-1.474a1,1,0,1,0-1.638,1.148l1.983,2.831c-.1.493-.172.99-.224,1.491Z"></path><path fill="#434951" d="M32,24a3,3,0,0,0,3-3,1,1,0,0,0-2,0,1,1,0,0,1-2,0,1,1,0,0,0-2,0A3,3,0,0,0,32,24Z"></path><path fill="#434951" d="M23,46a3,3,0,0,0-3-3,1,1,0,0,0,0,2,1,1,0,0,1,1,1,1,1,0,0,0,2,0Z"></path><path fill="#434951" d="M11,9a1,1,0,0,0-1,1v7H8V10a1,1,0,0,0-2,0v7H4V10a1,1,0,0,0-2,0V21a4,4,0,0,0,4,4H8V54a1,1,0,0,1-2,0V27.816a1,1,0,0,0-2,0V54a3,3,0,0,0,6,0V24.444A3.987,3.987,0,0,0,12,21V10A1,1,0,0,0,11,9ZM10,21a2,2,0,0,1-2,2H6a2,2,0,0,1-2-2V19h6Z"></path></g></g></svg>