<svg xmlns="http://www.w3.org/2000/svg" viewBox="0 0 64 64"><path fill="#5aaae7" d="M47,3a4,4,0,0,0-4,4V55H3V7A4,4,0,0,1,7,3Z"></path><path fill="#ff9811" d="M33,44V60a1,1,0,0,0,1,1H60a1,1,0,0,0,1-1V44Z"></path><rect width="11" height="5" x="50" y="39" fill="#ee8700"></rect><path fill="#3d9ae2" d="M51,7v6H43V7a4,4,0,1,1,8,0Z"></path><polygon fill="#ee8700" points="43 39 33 39 33 44 43 44 44 44 44 39 43 39"></polygon><polygon fill="#ff9811" points="57 33 43 33 37 33 33 39 43 39 44 39 50 39 61 39 57 33"></polygon><polygon fill="#3d9ae2" points="35.67 35 33 39 33 55 31 55 31 41 35 35 35.67 35"></polygon><polygon fill="#ffd422" points="19 25 19 32 9 32 9 22 19 22 19 25"></polygon><polygon fill="#e6e7e8" points="50 44 50 49 47 47 44 49 44 44 44 39 50 39 50 44"></polygon><rect width="4" height="2" x="8" y="9" fill="#1e81ce"></rect><rect width="8" height="2" x="14" y="9" fill="#1e81ce"></rect><rect width="14" height="2" x="8" y="13" fill="#1e81ce"></rect><path fill="#ed1c24" d="M15,30a1,1,0,0,1-.707-.293l-3-3,1.414-1.414L15,27.586l6.293-6.293,1.414,1.414-7,7A1,1,0,0,1,15,30Z"></path><rect width="8" height="2" x="24" y="27" fill="#1e81ce"></rect><rect width="8" height="2" x="24" y="31" fill="#1e81ce"></rect><path fill="#ed1c24" d="M33,13H31a1,1,0,0,1,0-2h2a1,1,0,0,1,1,1h2a3,3,0,0,0-3-3V8H31V9a3,3,0,0,0,0,6h2a1,1,0,0,1,0,2H31a1,1,0,0,1-1-1H28a3,3,0,0,0,3,3v1h2V19a3,3,0,0,0,0-6Z"></path><rect width="20" height="2" x="8" y="37" fill="#1e81ce"></rect><rect width="20" height="2" x="8" y="41" fill="#1e81ce"></rect><rect width="20" height="2" x="8" y="45" fill="#1e81ce"></rect></svg>