<svg xmlns="http://www.w3.org/2000/svg" width="48" height="48" viewBox="0 0 48 48"><path fill="#E3F2FD" d="M14.927,31.998l3.035-12.495c0,0-1.042-0.506-3.035-0.506s-2.979,0.507-2.979,0.507L14.927,31.998z"></path><path fill="#FF9800" d="M16.936 16.247L12.918 16.247 12.918 19.247 14.927 19.5 16.936 19.247z"></path><path fill="#9FA8DA" d="M34,12c-3.866,0-7,3.134-7,7h14C41,15.134,37.866,12,34,12z"></path><path fill="#5C6BC0" d="M26 18v1c0 .553.447 1 1 1h14c.553 0 1-.447 1-1v-1H26zM34 10A1 1 0 1 0 34 12 1 1 0 1 0 34 10z"></path><path fill="#FFB74D" d="M36 20l-2 2h-3l-3 5v-5c0-2 2-2 2-2H36zM10 42L7 40 7 36 10 36zM14.927 18.001c-2.771 0-5.022-2.243-5.022-5S12.156 8 14.927 8c2.77 0 5.021 2.244 5.021 5.001S17.696 18.001 14.927 18.001"></path><path fill="#424242" d="M14.707,6c-2.448,0.219-4.803,1.93-4.803,5.574v1.427l1.005,1V11l6.337-2.201L18.944,11v3.001l1.004-1v-1.202c0-2.415-0.136-4.207-3.013-4.799l-0.488-1H14.707z"></path><g><path fill="#455A64" d="M28,21l-3,5c0,0-3.358-4.374-4.003-4.857c-0.702-0.526-1.75-1.178-3.039-1.625l-3.031,12.48l-2.975-12.479C8.81,20.659,7,23.574,7,27v10l3,2v3h11V27.094L24,30h3l4-7L28,21z"></path><path fill="#455A64" d="M12.978 17.997l1.949 1.503-1.949 1.503c0 0-.565-.311-.565-1.459S12.978 17.997 12.978 17.997zM16.936 21.003L14.927 19.5l2.009-1.503c0 0 .564.311.564 1.459S16.936 21.003 16.936 21.003z"></path></g></svg>